<svg version="1.1" id="Layer_1" xmlns="http://www.w3.org/2000/svg" xmlns:xlink="http://www.w3.org/1999/xlink" x="0px" y="0px"
	 width="100%" viewBox="0 0 880 848" enable-background="new 0 0 880 848" xml:space="preserve">
<path fill="#000000" opacity="1.000000" stroke="none" 
	d="
M575.924744,404.934998 
	C590.230957,411.270264 599.108948,430.580597 593.929321,446.121033 
	C589.034180,460.808105 573.738586,472.115295 555.959534,471.383240 
	C534.499512,470.499634 512.966431,470.669556 491.488281,471.248779 
	C480.459747,471.546143 471.295868,476.387970 465.064636,486.408661 
	C452.359558,506.840210 468.795074,533.182373 490.284607,532.921448 
	C512.942749,532.646240 535.623962,532.381165 558.264404,533.090088 
	C579.294556,533.748596 593.184326,546.009216 595.830383,567.529480 
	C597.118103,578.002441 587.285217,593.958679 577.475952,599.268250 
	C572.006714,602.228638 566.424377,603.333679 560.273071,603.311890 
	C520.782043,603.171753 481.290436,603.199402 441.798981,603.212402 
	C438.330994,603.213501 433.937988,605.721252 433.046143,599.593567 
	C439.461548,597.469360 444.495819,593.511658 449.010864,588.671326 
	C453.783081,583.555176 456.234283,577.185425 456.517761,570.653748 
	C457.017365,559.143433 450.955505,546.025940 438.425140,540.609131 
	C433.559143,538.505615 428.940033,538.039062 423.983765,538.035156 
	C402.488190,538.018188 380.992249,538.097717 359.497162,537.994080 
	C340.658264,537.903259 326.653748,526.566956 322.275024,509.208740 
	C318.464203,494.101868 327.148773,478.380768 341.579498,470.821259 
	C348.231628,467.336578 355.119293,466.902405 362.329254,466.946411 
	C383.490814,467.075470 404.653595,467.000549 425.815918,467.016663 
	C438.656525,467.026428 450.325897,456.788147 454.958313,445.815155 
	C460.244965,433.292480 452.402618,415.296173 441.208160,409.181671 
	C436.503723,406.612091 431.349731,404.890900 425.555725,404.953766 
	C402.563507,405.203461 379.562073,404.736847 356.573151,405.103821 
	C344.922363,405.289795 328.642883,393.436646 324.031494,381.972900 
	C317.167969,364.910217 327.111023,346.065735 339.794739,339.209717 
	C344.712097,336.551758 349.934082,334.540253 355.871063,334.588196 
	C378.531616,334.771393 401.195404,334.542297 423.856171,334.710083 
	C441.120544,334.837891 454.452332,323.167999 456.485535,306.579590 
	C457.921051,294.867340 452.814850,285.146851 443.257294,278.215363 
	C440.186218,275.988098 437.505157,272.485229 432.770874,273.058624 
	C432.472351,270.752045 432.708679,268.803650 435.481079,268.794189 
	C450.590454,268.742584 465.700226,268.801971 480.809845,268.804413 
	C503.471863,268.808044 526.133972,268.820923 548.795837,268.773224 
	C554.436707,268.761353 560.040771,268.193817 565.721191,268.893707 
	C576.766052,270.254578 588.938293,280.833557 593.138794,291.013092 
	C600.212463,308.155579 591.056580,328.022430 575.144226,335.258423 
	C569.725708,337.722443 563.827515,339.120697 557.735413,339.118591 
	C536.239868,339.111176 514.741943,339.303894 493.249603,339.042603 
	C480.878052,338.892212 471.250397,343.353485 464.917450,354.071808 
	C459.188690,363.767578 458.581970,374.006897 463.940948,383.908569 
	C469.007843,393.270447 476.600861,399.789154 487.990631,399.892151 
	C505.984924,400.054840 523.981079,399.997101 541.976318,400.070862 
	C551.420959,400.109558 560.872192,400.065552 570.129700,402.461975 
	C572.090393,402.969543 573.976013,403.505371 575.924744,404.934998 
z"/>
</svg>